# xmcd CD database file
#
# Track frame offsets:
#	150
#	19361
#	40606
#	59192
#	78526
#	87952
#	107644
#	128059
#	145560
#	166309
#	182073
#	201843
#
# Disc length: 2917 seconds
#
# Revision: 0
# Processed by: cddbd v1.5.2PL0 Copyright (c) Steve Scherf et al.
# Submitted via: CDex 1.51
#
DISCID=a10b630c
DTITLE=Gunnar Bergsten - Lillen Andersson quartet - A Good Day For Saxes
DYEAR=2003
DGENRE=Jazz
TTITLE0=Bernie's Tune
TTITLE1=When Sunny Gets Blue
TTITLE2=Voyage
TTITLE3=Walking Shoes
TTITLE4=Blues In The Closet
TTITLE5=Just As Good As It Gets
TTITLE6=Soul Eyes
TTITLE7=Line For Lyons
TTITLE8=That Old Feeling
TTITLE9=Yesterdays
TTITLE10=Good Day For Saxes
TTITLE11=Nick Who's Blues
EXTD=YEAR: 2003
EXTT0=
EXTT1=
EXTT2=
EXTT3=
EXTT4=
EXTT5=
EXTT6=
EXTT7=
EXTT8=
EXTT9=
EXTT10=
EXTT11=
PLAYORDER=
